<?xml version="1.0" encoding="UTF-8"?>
<svg version="1.1" xmlns="http://www.w3.org/2000/svg" width="499" height="499">
<path d="M0 0 C0.66 0.33 1.32 0.66 2 1 C1.6390625 1.76183594 1.278125 2.52367188 0.90625 3.30859375 C-4.0551989 14.34781756 -3.77731935 20.53402137 -0.16796875 31.984375 C0.96040647 34.89777189 2.37791643 37.34145615 4 40 C4 40.66 4 41.32 4 42 C4.66 42 5.32 42 6 42 C8.29648649 44.5614657 9 45.47967572 9 49 C9.99 49.33 10.98 49.66 12 50 C12.33 50.66 12.66 51.32 13 52 C13.721875 51.855625 14.44375 51.71125 15.1875 51.5625 C16.115625 51.376875 17.04375 51.19125 18 51 C18.763125 50.7834375 19.52625 50.566875 20.3125 50.34375 C23.68736887 49.91208073 25.66875803 50.68757849 28.8125 51.9375 C29.78832031 52.31777344 30.76414062 52.69804687 31.76953125 53.08984375 C32.50558594 53.39019531 33.24164063 53.69054687 34 54 C33.38125 53.13375 32.7625 52.2675 32.125 51.375 C28.6465701 45.85043486 27.00329822 40.55854378 28 34 C29.85264397 28.58226816 32.735674 24.82695923 37 21 C37.53625 20.401875 38.0725 19.80375 38.625 19.1875 C40 18 40 18 43 18 C43 17.34 43 16.68 43 16 C45.05673453 14.98819502 47.12065348 13.99098523 49.1875 13 C50.33605469 12.443125 51.48460937 11.88625 52.66796875 11.3125 C55.79090519 10.08236325 57.70286482 9.70195388 61 10 C61.33 9.34 61.66 8.68 62 8 C62 9.32 62 10.64 62 12 C59.5859375 13.60546875 59.5859375 13.60546875 56.375 15.1875 C48.9619542 19.26992027 45.67631343 23.73302037 42.625 31.5 C41.56908384 37.4131305 40.95383243 42.64503082 44 48 C44.37511719 47.54109375 44.75023437 47.0821875 45.13671875 46.609375 C45.64847656 45.99578125 46.16023438 45.3821875 46.6875 44.75 C47.18636719 44.14671875 47.68523437 43.5434375 48.19921875 42.921875 C52.20131613 38.6506561 57.03685984 35.56568042 61.9375 32.4375 C62.53240234 32.05142578 63.12730469 31.66535156 63.74023438 31.26757812 C73.50996859 25 73.50996859 25 78 25 C78 24.34 78 23.68 78 23 C96.74134798 16.5546887 113.3144633 14.60734369 132 23 C135.4140625 24.98046875 135.4140625 24.98046875 138 27 C138 27.99 138 28.98 138 30 C136.74445313 30.17015625 135.48890625 30.3403125 134.1953125 30.515625 C121.20778439 32.36005265 121.20778439 32.36005265 109 37 C108.21753906 37.37769531 107.43507813 37.75539062 106.62890625 38.14453125 C104.73995653 39.07100052 102.86776388 40.03152984 101 41 C101.92941406 41.24234375 102.85882813 41.4846875 103.81640625 41.734375 C115.13565046 44.80320033 115.13565046 44.80320033 118.5 47.25 C122.45064417 49.22532208 124.45411043 49.13107939 128.8125 49 C141.68426949 48.67344348 150.5951904 55.15213036 159.875 63.625 C162.32159753 66.35943254 164.65114098 69.18136918 167 72 C167.77730469 72.76054687 168.55460938 73.52109375 169.35546875 74.3046875 C172.09815842 77.10004329 174.45235281 80.00162113 176.8125 83.125 C177.60269531 84.15882813 178.39289063 85.19265625 179.20703125 86.2578125 C181 89 181 89 181 92 C181.66 92 182.32 92 183 92 C190.28551298 104.19419193 194.96364498 117.1542211 198 131 C198.19335938 131.79921875 198.38671875 132.5984375 198.5859375 133.421875 C204.33017339 157.56431568 200.57403369 184.64612176 190 207 C189.33871094 208.47533203 189.33871094 208.47533203 188.6640625 209.98046875 C183.12006169 221.81890143 174.92981555 231.55679784 166 241 C164.92105469 242.15822266 164.92105469 242.15822266 163.8203125 243.33984375 C158.43053991 248.95019423 152.60319969 253.85747985 146 258 C145.34 258 144.68 258 144 258 C144 258.66 144 259.32 144 260 C127.89580725 268.32487756 127.89580725 268.32487756 119.33203125 271.2109375 C116.98826635 271.97030668 116.98826635 271.97030668 114.734375 272.96875 C88.6295657 282.81399237 55.39952127 280.29277337 29.99609375 269.4296875 C29.00738281 268.95789063 28.01867187 268.48609375 27 268 C26.41492676 267.72317383 25.82985352 267.44634766 25.22705078 267.16113281 C16.61587405 263.0222196 9.03434637 258.10501112 1.609375 252.1015625 C-1.00338939 249.93281674 -1.00338939 249.93281674 -4 248 C-4 247.34 -4 246.68 -4 246 C-4.86625 245.62875 -4.86625 245.62875 -5.75 245.25 C-8.32939979 243.81700012 -10.06121592 242.21575324 -12 240 C-12 239.34 -12 238.68 -12 238 C-12.99 237.67 -13.98 237.34 -15 237 C-16.60546875 235.22265625 -16.60546875 235.22265625 -18.1875 233.0625 C-18.98220703 231.99708984 -18.98220703 231.99708984 -19.79296875 230.91015625 C-21 229 -21 229 -21 227 C-21.66 227 -22.32 227 -23 227 C-24.2890625 225.35546875 -24.2890625 225.35546875 -25.625 223.1875 C-26.07101563 222.47980469 -26.51703125 221.77210938 -26.9765625 221.04296875 C-28 219 -28 219 -28 216 C-28.66 216 -29.32 216 -30 216 C-45.69765371 184.49336171 -49.66583381 150.99447605 -39 117 C-38.79858398 116.33436035 -38.59716797 115.6687207 -38.38964844 114.98291016 C-35.57101071 105.97409223 -35.57101071 105.97409223 -32.12890625 103.83984375 C-30.1875 103.25 -30.1875 103.25 -27 103 C-28.485 102.01 -28.485 102.01 -30 101 C-32 99.66666667 -34 98.33333333 -36 97 C-35.01 96.01 -35.01 96.01 -34 95 C-31.8359375 95.0234375 -31.8359375 95.0234375 -29.375 95.375 C-28.55773437 95.48585938 -27.74046875 95.59671875 -26.8984375 95.7109375 C-26.27195313 95.80632812 -25.64546875 95.90171875 -25 96 C-24.67 95.34 -24.34 94.68 -24 94 C-22.515 94.495 -22.515 94.495 -21 95 C-20.67 94.34 -20.34 93.68 -20 93 C-18.02646943 92.23984651 -16.01994846 91.56396986 -14 90.9375 C-10.20553957 90.00261214 -10.20553957 90.00261214 -7 88 C-8.65 87.67 -10.3 87.34 -12 87 C-12 87.66 -12 88.32 -12 89 C-15.96 89.99 -15.96 89.99 -20 91 C-21.09658936 87.71023192 -20.79953138 86.28696233 -20 83 C-20.86625 82.443125 -21.7325 81.88625 -22.625 81.3125 C-29.51085329 76.65727524 -33.64776639 72.0839547 -38 65 C-37.01 65 -36.02 65 -35 65 C-34.34 66.32 -33.68 67.64 -33 69 C-32.34 69 -31.68 69 -31 69 C-31 69.66 -31 70.32 -31 71 C-30.278125 71.28875 -29.55625 71.5775 -28.8125 71.875 C-27.08276434 72.56689426 -25.36146572 73.28095508 -23.65625 74.03125 C-19.07898184 75.70060662 -14.77252321 76.02363311 -10 75 C-6.81777744 72.71558318 -4.40079268 70.08181983 -2 67 C-2.495 66.21625 -2.99 65.4325 -3.5 64.625 C-5 62 -5 62 -5 60 C-5.66 60 -6.32 60 -7 60 C-7.66901062 58.66197876 -8.33744788 57.32366933 -9.00390625 55.984375 C-9.75367151 54.49072499 -10.51315086 53.00194512 -11.27734375 51.515625 C-11.72207031 50.64421875 -12.16679687 49.7728125 -12.625 48.875 C-13.05039063 48.04742187 -13.47578125 47.21984375 -13.9140625 46.3671875 C-17.28646345 39.01583866 -17.40887652 28.86523246 -15.1640625 21.11328125 C-13.9450284 18.5729451 -12.59294406 16.32463129 -11 14 C-10.33742187 13.02804688 -9.67484375 12.05609375 -8.9921875 11.0546875 C-3.50171972 3.29509651 -3.50171972 3.29509651 0 0 Z M133 58 C134.54265057 61.26858636 136.39727571 64.22727729 138.375 67.25 C141.66110481 72.3730578 144.5820649 77.5241768 146.8828125 83.1640625 C148.50341026 86.90914135 149.52777245 88.68518163 153 91 C158.10675845 92.75440061 163.68224232 92.23576266 169 92 C166.33978602 86.67957203 163.22885259 82.9719129 158.90234375 78.89453125 C157 77 157 77 155.37890625 74.76171875 C154.92386719 74.18035156 154.46882813 73.59898437 154 73 C153.34 73 152.68 73 152 73 C152 72.34 152 71.68 152 71 C150.05624046 69.18371224 150.05624046 69.18371224 147.625 67.375 C146.81289063 66.74335938 146.00078125 66.11171875 145.1640625 65.4609375 C143.15890121 63.81349192 143.15890121 63.81349192 141 64 C141 63.34 141 62.68 141 62 C139.68 61.67 138.36 61.34 137 61 C137 60.34 137 59.68 137 59 C135.68 58.67 134.36 58.34 133 58 Z M36 82 C30.6414482 95.74585028 27.75652244 108.51454122 27.6875 123.3125 C27.68194092 124.31458496 27.67638184 125.31666992 27.6706543 126.34912109 C27.73285396 132.77641912 28.49977836 138.75093711 30 145 C34.25209792 140.87675353 38.13635705 136.48717034 42 132 C41.34 131.67 40.68 131.34 40 131 C37.0372678 131.7391254 37.0372678 131.7391254 35.5 133.5 C34 135 34 135 31 136 C33.1242236 111.34782609 33.1242236 111.34782609 38.125 101.8671875 C39.2828912 99.74000392 39.2828912 99.74000392 39 96 C40.32 96.33 41.64 96.66 43 97 C41.64475824 91.57903298 39.63365987 86.9221313 37 82 C36.67 82 36.34 82 36 82 Z M43 97 C44.96752779 106.18877338 50.92187403 114.27399406 56 122 C56.41765625 122.66902344 56.8353125 123.33804688 57.265625 124.02734375 C58.1230979 125.3871422 59.05238165 126.7014119 60 128 C60.66 128 61.32 128 62 128 C62.3403125 129.11375 62.3403125 129.11375 62.6875 130.25 C64.24407532 133.51139591 66.08518854 134.92894975 69 137 C67.80100302 133.9168649 66.52299523 130.93720508 65 128 C64.34 128 63.68 128 63 128 C62.76410156 127.32324219 62.52820313 126.64648438 62.28515625 125.94921875 C60.69359812 122.29685891 58.63043967 119.1278922 56.4375 115.8125 C52.08787129 109.17574257 52.08787129 109.17574257 51 107 C50.34 107 49.68 107 49 107 C48.7525 106.0925 48.505 105.185 48.25 104.25 C46.96018658 100.89648511 45.68028958 99.32291764 43 97 Z M173 99 C171.86820313 99.63808594 170.73640625 100.27617187 169.5703125 100.93359375 C168.08855576 101.76825419 166.60678416 102.60288824 165.125 103.4375 C164.00544922 104.06881836 164.00544922 104.06881836 162.86328125 104.71289062 C161.79013672 105.31713867 161.79013672 105.31713867 160.6953125 105.93359375 C160.03547363 106.30540771 159.37563477 106.67722168 158.69580078 107.06030273 C157.47885349 107.73465202 156.24441397 108.37779302 155 109 C154.80137272 117.06292065 154.80137272 117.06292065 156 125 C158.73347407 127.51479614 162.15173839 127.34431427 165.76171875 127.26953125 C169.69813911 126.79551204 173.32047381 125.43092685 177 124 C175.38995734 128.83012798 171.56527812 131.57241284 167.6875 134.6875 C166.3571875 135.8321875 166.3571875 135.8321875 165 137 C165 137.66 165 138.32 165 139 C159.66164461 140.92471317 154.65020618 142.39891424 149 143 C152.50354121 149.42315889 157.10802514 154.66766554 163 159 C160.13026116 160.61635488 157.95535797 161.2733418 154.671875 161.4140625 C153.87265625 161.45273438 153.0734375 161.49140625 152.25 161.53125 C151.0125 161.57765625 151.0125 161.57765625 149.75 161.625 C148.90953125 161.66367188 148.0690625 161.70234375 147.203125 161.7421875 C145.13576618 161.83615836 143.06791373 161.91915564 141 162 C141.08833278 163.85498842 141.1965163 165.709035 141.3125 167.5625 C141.37050781 168.59503906 141.42851562 169.62757813 141.48828125 170.69140625 C141.97420452 174.74150877 141.97420452 174.74150877 145 181 C139.72 180.34 134.44 179.68 129 179 C128.83934101 185.50668891 128.81810191 190.86341162 131 197 C127.70255895 196.4607958 124.89004461 195.70728614 122 194 C120.2001803 190.82384758 119.65507599 187.56423238 119 184 C118.64615234 182.77216797 118.64615234 182.77216797 118.28515625 181.51953125 C116.64088527 175.71107103 116.64088527 175.71107103 118.17578125 172.671875 C118.77777344 171.79015625 119.37976563 170.9084375 120 170 C120.72316406 168.89785156 121.44632813 167.79570312 122.19140625 166.66015625 C123.3790176 164.85601454 124.56843055 163.05365687 125.77148438 161.25976562 C131.58806605 152.37467007 132.07133817 143.37023918 131 133 C129.58197473 127.61150399 126.70116048 124.01356441 122 121 C117.02095391 119.34031797 111.95772241 119.04289126 107.1875 121.375 C106.465625 121.91125 105.74375 122.4475 105 123 C103.67391178 123.68096422 102.34313399 124.35330586 101 125 C100.01 124.01 99.02 123.02 98 122 C98.33 126.95 98.66 131.9 99 137 C103.12291025 135.30879304 103.12291025 135.30879304 105.3125 131.9375 C108 129 108 129 111.4375 128 C115.24532318 128 117.63440686 128.19979902 121 130 C122.25 132.8125 122.25 132.8125 123 136 C123.37125 136.804375 123.7425 137.60875 124.125 138.4375 C126.30258558 144.8147149 124.59006261 149.78927081 122.16796875 155.765625 C121.01134757 157.97829161 119.76856948 159.27703833 118 161 C118 161.66 118 162.32 118 163 C116.68 163.33 115.36 163.66 114 164 C114 164.66 114 165.32 114 166 C112.700625 166.37125 112.700625 166.37125 111.375 166.75 C107.19786263 168.29708792 103.26784817 169.79194982 100.95703125 173.81640625 C100.22701757 175.51291691 99.60414305 177.25469786 99 179 C99.84304688 179.32613281 100.68609375 179.65226562 101.5546875 179.98828125 C102.65039062 180.42527344 103.74609375 180.86226563 104.875 181.3125 C105.96554687 181.74175781 107.05609375 182.17101562 108.1796875 182.61328125 C111 184 111 184 113 187 C113.44782603 188.73844309 113.82213185 190.49642638 114.1484375 192.26171875 C114.34953125 193.29876953 114.550625 194.33582031 114.7578125 195.40429688 C115.16545864 197.57281954 115.5691814 199.74208384 115.96875 201.91210938 C117.20501279 208.24600009 118.80656706 213.38091694 122 219 C121.11441406 219.01417969 120.22882813 219.02835937 119.31640625 219.04296875 C105.41102241 219.57834773 92.71831072 223.4064432 80 229 C80 228.01 80 227.02 80 226 C79.34 226 78.68 226 78 226 C77.01 229.3 76.02 232.6 75 236 C72 235 72 235 71.05078125 233.2578125 C70.80714844 232.55398438 70.56351562 231.85015625 70.3125 231.125 C70.06113281 230.42632812 69.80976563 229.72765625 69.55078125 229.0078125 C69 227 69 227 69 224 C74.41538462 222.76923077 74.41538462 222.76923077 77.375 223.9375 C77.91125 224.288125 78.4475 224.63875 79 225 C79.08121094 223.62521484 79.08121094 223.62521484 79.1640625 222.22265625 C79.98303219 216.51142028 82.83386279 211.54909523 85.375 206.4375 C85.87 205.42236328 86.365 204.40722656 86.875 203.36132812 C88.83606021 199.34744686 90.81220654 195.35203286 92.9140625 191.41015625 C93.27242188 190.61480469 93.63078125 189.81945312 94 189 C93.67 188.34 93.34 187.68 93 187 C92.46890625 187.68707031 91.9378125 188.37414062 91.390625 189.08203125 C90.68421875 189.98308594 89.9778125 190.88414062 89.25 191.8125 C88.55390625 192.70582031 87.8578125 193.59914063 87.140625 194.51953125 C85.2182358 196.74711727 83.33227837 198.25079122 81 200 C81 200.66 81 201.32 81 202 C77.66666667 203.66666667 74.33333333 205.33333333 71 207 C71 207.66 71 208.32 71 209 C70.28199219 209.26683594 69.56398438 209.53367187 68.82421875 209.80859375 C65.965435 211.01458136 63.45246352 212.43698539 60.8125 214.0625 C53.33554644 218.6473186 53.33554644 218.6473186 48.08984375 218.609375 C43.75668265 217.34587382 42.11291525 212.69159908 40 209 C38.43936139 206.80535196 36.8626408 204.96332408 35 203 C34.01 203 33.02 203 32 203 C31.896875 202.05125 31.79375 201.1025 31.6875 200.125 C31.31460705 196.70892499 31.31460705 196.70892499 28 195 C27.773125 194.278125 27.54625 193.55625 27.3125 192.8125 C25.31134174 188.52430374 21.80352513 185.74963171 18 183 C17.34 183 16.68 183 16 183 C16.61875 181.63875 16.61875 181.63875 17.25 180.25 C17.83763485 178.8351122 18.42028311 177.4181504 19 176 C19.39445312 175.0925 19.78890625 174.185 20.1953125 173.25 C23.21552121 165.56946923 23.07129296 160.64812169 20 153 C21.32 153.66 22.64 154.32 24 155 C22.35433477 149.31497465 19.70967216 144.23318364 17 139 C14.50862611 142.90905946 14.37408298 147.06379708 13.9375 151.5625 C13.11548913 159.65353261 13.11548913 159.65353261 12 163 C7.56013833 151.49672204 6.86410219 139.2111283 6 127 C2.84579082 129.65567156 1.30976078 133.04160685 -0.4375 136.6875 C-1.05583661 137.95580376 -1.67432515 139.22403345 -2.29296875 140.4921875 C-2.85628906 141.64976562 -3.41960937 142.80734375 -4 144 C-4.74766148 145.43871768 -5.49712055 146.87650599 -6.25 148.3125 C-7.99679294 151.76148692 -9.13329157 155.30627167 -10.19140625 159.01953125 C-11.10001024 161.24495262 -12.20787977 162.42630994 -14 164 C-13.34990758 146.49233873 -10.86066184 129.83715744 -6 113 C-5.65905608 111.66859242 -5.3217337 110.33617975 -5 109 C-7.08108685 108.32635339 -9.1649671 107.66133202 -11.25 107 C-12.41015625 106.62875 -13.5703125 106.2575 -14.765625 105.875 C-18.0850928 104.82590405 -18.0850928 104.82590405 -22 105 C-31.74493844 130.41883618 -40.2611105 162.29281968 -28.91015625 188.81640625 C-27.66376438 191.80667688 -26.66897569 194.87102596 -25.625 197.9375 C-23.56449967 203.69100388 -21.26376958 208.84254593 -18 214 C-16.99839844 215.59134766 -16.99839844 215.59134766 -15.9765625 217.21484375 C-13.10488706 221.68934904 -13.10488706 221.68934904 -10 226 C-9.34 226 -8.68 226 -8 226 C-7.60748047 226.86625 -7.60748047 226.86625 -7.20703125 227.75 C-4.20036413 233.35466103 0.78298725 238.42261983 6 242 C6.66 242 7.32 242 8 242 C8 242.66 8 243.32 8 244 C10.46943019 245.72020987 12.93261194 247.31362747 15.5 248.875 C16.19609375 249.30941406 16.8921875 249.74382812 17.609375 250.19140625 C23.6388142 253.90956042 29.81141581 257.36121993 36.5 259.75 C37.655 260.1625 38.81 260.575 40 261 C42.5654594 258.4345406 42.54046087 256.52313332 43 253 C43.66 253 44.32 253 45 253 C46.35432675 251.68799596 47.68733482 250.35368596 49 249 C49.66 248.67 50.32 248.34 51 248 C51 247.34 51 246.68 51 246 C52.051875 245.5978125 52.051875 245.5978125 53.125 245.1875 C56.1649824 243.9318551 59.0727774 242.49764877 62 241 C62 240.34 62 239.68 62 239 C63.98 238.67 65.96 238.34 68 238 C67.32780061 241.80912987 66.24639299 245.34188725 65 249 C65.55349121 248.74831055 66.10698242 248.49662109 66.67724609 248.23730469 C69.24212516 247.07256668 71.80855035 245.91127296 74.375 244.75 C75.24511719 244.35425781 76.11523438 243.95851563 77.01171875 243.55078125 C96.17617225 234.89128744 111.94977684 231.2867121 133 232 C133.26264648 232.61415771 133.52529297 233.22831543 133.79589844 233.86108398 C134.32231934 235.07260132 134.32231934 235.07260132 134.859375 236.30859375 C135.20452148 237.10837646 135.54966797 237.90815918 135.90527344 238.73217773 C137.24256804 241.50250101 138.9428252 243.72241362 141 246 C145.80793771 245.57009316 148.40466346 243.2892346 151.75 240.0625 C152.27440674 239.56596924 152.79881348 239.06943848 153.33911133 238.55786133 C164.89673005 227.48980805 173.65586012 215.65543999 180.3125 201.125 C180.62582275 200.45533203 180.93914551 199.78566406 181.26196289 199.09570312 C186.89990971 186.21413188 188.66740658 173.42562213 188.52148438 159.49145508 C188.50003849 157.06685109 188.5214182 154.64521833 188.546875 152.22070312 C188.57514671 137.57169225 185.93188446 124.069053 179.9375 110.625 C179.59912109 109.820625 179.26074219 109.01625 178.91210938 108.1875 C177.31355799 104.48949719 176.01314713 101.74735954 173 99 Z M71 113 C71.58970326 118.54321063 72.70633841 123.88590286 75 129 C75.66 129.33 76.32 129.66 77 130 C77.33 129.34 77.66 128.68 78 128 C84.27554803 133.53724826 88.86357724 140.8815935 91 149 C91.66 147.68 92.32 146.36 93 145 C95.31 146.32 97.62 147.64 100 149 C101.04956278 145.03498506 101.14491402 141.9631639 100 138 C98.67178131 137.32320067 97.33765894 136.65794436 96 136 C94.2890625 134.23046875 94.2890625 134.23046875 92.625 132.1875 C89.64537829 128.66034097 86.59124558 125.88861058 83 123 C80.3810324 120.44490966 77.8402644 117.83283483 75.3125 115.1875 C73.28837851 112.77093338 73.28837851 112.77093338 71 113 Z M44 128 C43.67 128.66 43.34 129.32 43 130 C43.66 130 44.32 130 45 130 C44.67 129.34 44.34 128.68 44 128 Z M109.375 133.9375 C105.75663604 138.60328511 104.74787772 142.64685868 105.375 148.5 C105.58125 149.325 105.7875 150.15 106 151 C106.66 151 107.32 151 108 151 C107.67 153.64 107.34 156.28 107 159 C110.18462224 158.05322042 111.73697662 157.33558155 113.8125 154.6875 C115.09570604 151.78340211 115.49409199 150.12924926 115 147 C113.79081118 145.12359581 113.79081118 145.12359581 112 144 C111.01 144 110.02 144 109 144 C111.66666667 141.33333333 114.33333333 138.66666667 117 136 C116.35137474 132.94279946 116.35137474 132.94279946 114.25 132 C111.75794932 131.77730539 111.75794932 131.77730539 109.375 133.9375 Z M42 141 C40.00673309 143.36461526 39.68714828 144.90783275 39 148 C40.98 147.67 42.96 147.34 45 147 C45.66 151.62 46.32 156.24 47 161 C50.98407676 162.42461984 50.98407676 162.42461984 54.5 160.5 C59.61917007 157.3101103 61.34068083 152.9120256 63.25 147.375 C63.91009677 144.40456454 64.0616772 142.01190347 64 139 C56.72616354 138.71033395 48.91735107 138.50117395 42 141 Z M78 259 C77.05253906 259.44859375 76.10507813 259.8971875 75.12890625 260.359375 C70.27761365 262.31599384 70.27761365 262.31599384 67 266 C78.77503052 271.88751526 102.51472225 265.49236751 114.45703125 261.9609375 C119.50249734 260.05435584 124.25833939 257.55702117 129 255 C114.42547231 243.17843865 92.67233645 251.82589735 78 259 Z " fill="#F1F1F1" transform="translate(173,92)"/>
<path d="M0 0 C2.10968724 0.73432766 4.21262133 1.48807681 6.3125 2.25 C7.48425781 2.66765625 8.65601563 3.0853125 9.86328125 3.515625 C13.19936999 5.09434694 14.11138428 5.93137424 16 9 C16.75195312 11.57788086 16.75195312 11.57788086 17.28125 14.46484375 C17.48363281 15.51220703 17.68601562 16.55957031 17.89453125 17.63867188 C18.09433594 18.72728516 18.29414063 19.81589844 18.5 20.9375 C18.89723968 23.09412705 19.30320193 25.24916949 19.71875 27.40234375 C19.89341797 28.35616943 20.06808594 29.30999512 20.24804688 30.29272461 C21.06834186 33.24605287 22.41681341 35.39356747 24 38 C24 38.99 24 39.98 24 41 C22.83726562 41.14695312 21.67453125 41.29390625 20.4765625 41.4453125 C10.11340559 42.86094896 0.59441318 45.14452852 -9.2421875 48.6953125 C-12.19789362 49.721514 -14.92298399 50.50526409 -18 51 C-18 50.01 -18 49.02 -18 48 C-18.66 48 -19.32 48 -20 48 C-20.12375 48.9075 -20.2475 49.815 -20.375 50.75 C-20.92109677 53.58970323 -21.57263803 55.52590591 -23 58 C-24.88671875 57.73828125 -24.88671875 57.73828125 -27 57 C-28.08203125 55.29296875 -28.08203125 55.29296875 -28.8125 53.1875 C-29.06644531 52.50042969 -29.32039062 51.81335938 -29.58203125 51.10546875 C-30.05333812 48.73131543 -29.75212833 47.27685106 -29 45 C-26.1875 44.375 -26.1875 44.375 -23 44 C-22.01 44.66 -21.02 45.32 -20 46 C-19.88446777 45.12150391 -19.76893555 44.24300781 -19.64990234 43.33789062 C-19.01011385 40.05194459 -18.06468221 37.59020189 -16.6015625 34.59375 C-15.88226563 33.10681641 -15.88226563 33.10681641 -15.1484375 31.58984375 C-14.64570313 30.57019531 -14.14296875 29.55054688 -13.625 28.5 C-13.13 27.48035156 -12.635 26.46070313 -12.125 25.41015625 C-10.18237084 21.41581982 -8.22011239 17.43397705 -6.2109375 13.47265625 C-4.90627905 10.95399273 -4.90627905 10.95399273 -4 7.9375 C-2.99171192 4.97565377 -1.64356663 2.6484647 0 0 Z " fill="#EFEFEF" transform="translate(271,270)"/>
<path d="M0 0 C1.79296875 0.1015625 1.79296875 0.1015625 4 1 C5.67578125 3.7734375 5.67578125 3.7734375 7.3125 7.375 C9.98246542 13.06436075 12.9553749 18.341211 16.421875 23.59765625 C17.52658336 25.27932863 18.58857332 26.98948558 19.6171875 28.71875 C20.93282019 30.88917229 22.1847227 32.25454106 24 34 C25.69636572 35.97654625 27.34559144 37.98788148 29 40 C29.66 39.67 30.32 39.34 31 39 C31 39.66 31 40.32 31 41 C31.66 41 32.32 41 33 41 C36 45.38461538 36 45.38461538 36 48 C36.66 48 37.32 48 38 48 C38.33 47.01 38.66 46.02 39 45 C39 46.98 39 48.96 39 51 C37.25 50.8125 37.25 50.8125 35 50 C34.360625 49.175 33.72125 48.35 33.0625 47.5 C31.21388522 44.78439848 31.21388522 44.78439848 28.25 44.1875 C27.13625 44.0946875 27.13625 44.0946875 26 44 C25.67 45.32 25.34 46.64 25 48 C25 46.35 25 44.7 25 43 C17.74 43.66 10.48 44.32 3 45 C2.34 46.98 1.68 48.96 1 51 C1.99 51 2.98 51 4 51 C4 51.66 4 52.32 4 53 C1.69 53.66 -0.62 54.32 -3 55 C-1.125 50.25 -1.125 50.25 0 48 C-1.65 48.66 -3.3 49.32 -5 50 C-5.04898438 50.63808594 -5.09796875 51.27617187 -5.1484375 51.93359375 C-5.26058594 53.17302734 -5.26058594 53.17302734 -5.375 54.4375 C-5.44460937 55.26121094 -5.51421875 56.08492187 -5.5859375 56.93359375 C-5.79089844 57.95646484 -5.79089844 57.95646484 -6 59 C-6.99 59.495 -6.99 59.495 -8 60 C-12.07178052 44.91259896 -12.47405801 30.57280552 -12 15 C-11.67 15 -11.34 15 -11 15 C-10.98018066 15.6798999 -10.96036133 16.3597998 -10.93994141 17.06030273 C-10.84378718 20.18637741 -10.73447934 23.31186473 -10.625 26.4375 C-10.5940625 27.50677734 -10.563125 28.57605469 -10.53125 29.67773438 C-10.29780172 36.03919994 -9.59489423 41.83437231 -8 48 C-6.87370125 46.56351736 -5.7490101 45.12577415 -4.625 43.6875 C-3.99851563 42.88699219 -3.37203125 42.08648437 -2.7265625 41.26171875 C-1.42243282 39.55336788 -0.19218183 37.78827274 1 36 C0.01 36 -0.98 36 -2 36 C-2.33 36.99 -2.66 37.98 -3 39 C-5.475 39.495 -5.475 39.495 -8 40 C-8.47901755 26.00204272 -5.13967648 12.97156445 0 0 Z M5 32 C4.67 32.66 4.34 33.32 4 34 C4.66 34 5.32 34 6 34 C5.67 33.34 5.34 32.68 5 32 Z " fill="#E7E7E7" transform="translate(212,188)"/>
<path d="M0 0 C3.06400423 1.73011175 3.06400423 1.73011175 5.5 0.5625 C6.0775 0.170625 6.655 -0.22125 7.25 -0.625 C8.24 -0.625 9.23 -0.625 10.25 -0.625 C9.59 0.695 8.93 2.015 8.25 3.375 C7.59 3.375 6.93 3.375 6.25 3.375 C6.745 4.7671875 6.745 4.7671875 7.25 6.1875 C8.83760655 11.9542473 9.7223915 18.18394511 7.15234375 23.75390625 C4.66985783 27.34854586 1.78632856 30.54247438 -2.42578125 32.06640625 C-7.01289 32.67545094 -11.6577573 31.9622912 -16.2265625 31.40625 C-20.14800799 31.37147 -21.6121051 32.15468448 -24.75 34.375 C-25.41 34.375 -26.07 34.375 -26.75 34.375 C-26.40120368 31.11956771 -25.72866739 30.35626893 -23.1875 28.125 C-22.383125 27.5475 -21.57875 26.97 -20.75 26.375 C-21.224375 25.900625 -21.69875 25.42625 -22.1875 24.9375 C-24.45598484 21.21718486 -24.88895203 17.70445288 -24.75 13.375 C-24.0391516 10.75662315 -23.03865903 8.80913373 -21.75 6.375 C-21.358125 5.570625 -20.96625 4.76625 -20.5625 3.9375 C-20.294375 3.421875 -20.02625 2.90625 -19.75 2.375 C-18.76 2.375 -17.77 2.375 -16.75 2.375 C-16.75 1.715 -16.75 1.055 -16.75 0.375 C-11.1232629 -2.43836855 -5.61546123 -2.71132785 0 0 Z M-13.75 10.375 C-13.75 11.365 -13.75 12.355 -13.75 13.375 C-13.13125 13.065625 -12.5125 12.75625 -11.875 12.4375 C-10.5 11.75 -9.125 11.0625 -7.75 10.375 C-8.08 9.715 -8.41 9.055 -8.75 8.375 C-11.07357511 8.19009993 -11.07357511 8.19009993 -13.75 10.375 Z M-3.75 10.375 C-5.38676257 12.3350281 -5.38676257 12.3350281 -6.75 14.375 C-6.09 14.375 -5.43 14.375 -4.75 14.375 C-4.42 16.355 -4.09 18.335 -3.75 20.375 C-1.56668311 18.61363645 -1.56668311 18.61363645 -1.5546875 16.4296875 C-1.57789063 15.71039063 -1.60109375 14.99109375 -1.625 14.25 C-1.66625 12.97125 -1.7075 11.6925 -1.75 10.375 C-2.41 10.375 -3.07 10.375 -3.75 10.375 Z " fill="#D5D5D5" transform="translate(337.75,272.625)"/>
<path d="M0 0 C0.75667969 0.35835938 1.51335937 0.71671875 2.29296875 1.0859375 C2.86701802 6.86895234 3.18214795 11.67851031 -0.26953125 16.5859375 C-3.37126548 20.09979026 -6.05799989 22.00116351 -10.70703125 23.0859375 C-16.23527377 22.70998283 -20.40795264 21.66356154 -24.70703125 18.0859375 C-24.04703125 18.0859375 -23.38703125 18.0859375 -22.70703125 18.0859375 C-23.03703125 17.0959375 -23.36703125 16.1059375 -23.70703125 15.0859375 C-23.04703125 15.0859375 -22.38703125 15.0859375 -21.70703125 15.0859375 C-21.37703125 14.0959375 -21.04703125 13.1059375 -20.70703125 12.0859375 C-19.71703125 12.0859375 -18.72703125 12.0859375 -17.70703125 12.0859375 C-17.45953125 11.4671875 -17.21203125 10.8484375 -16.95703125 10.2109375 C-15.50074486 7.73525063 -14.32890619 7.13468748 -11.70703125 6.0859375 C-11.58328125 6.7253125 -11.45953125 7.3646875 -11.33203125 8.0234375 C-11.12578125 8.7040625 -10.91953125 9.3846875 -10.70703125 10.0859375 C-10.04703125 10.4159375 -9.38703125 10.7459375 -8.70703125 11.0859375 C-8.70703125 8.1159375 -8.70703125 5.1459375 -8.70703125 2.0859375 C-3.3733774 -1.1390625 -3.3733774 -1.1390625 0 0 Z " fill="#E9E9E9" transform="translate(343.70703125,281.9140625)"/>
<path d="M0 0 C3.0538034 2.33053417 4.45440934 4.18086537 5 8 C4.195625 8.28875 3.39125 8.5775 2.5625 8.875 C-0.1326468 9.73262568 -0.1326468 9.73262568 -1 12 C-2.32 11.67 -3.64 11.34 -5 11 C-4.505 10.566875 -4.01 10.13375 -3.5 9.6875 C-1.66781808 8.00259517 -1.66781808 8.00259517 -2 5 C-5.26508017 5.27209001 -6.74129054 5.76346564 -9.1875 8 C-11.52152738 11.86321773 -12.26902387 15.58528891 -13 20 C-13.33 20 -13.66 20 -14 20 C-14 18.02 -14 16.04 -14 14 C-14.66 14 -15.32 14 -16 14 C-16.33 14.66 -16.66 15.32 -17 16 C-17.268125 15.236875 -17.53625 14.47375 -17.8125 13.6875 C-18.94424112 11.12619116 -19.91223401 9.80307062 -22 8 C-19.92446352 7.4465236 -18.15634036 7 -16 7 C-14.39771617 5.29059971 -12.98705258 3.46698472 -11.53515625 1.62890625 C-8.14265199 -1.97077385 -4.43537291 -1.01157628 0 0 Z " fill="#C9C9C9" transform="translate(291,220)"/>
<path d="M0 0 C2.42999536 2.27364177 3.42805835 3.68273845 4 7 C4.66 6.01 5.32 5.02 6 4 C7.79036458 5.04166667 9.58072917 6.08333333 11.37109375 7.125 C12.83865039 8.07886962 12.83865039 8.07886962 14 8 C13.257315 16.61514596 10.1899124 22.1711679 5 29 C4.67 29 4.34 29 4 29 C3.9498877 28.44127197 3.89977539 27.88254395 3.84814453 27.30688477 C3.61309799 24.72483727 3.36909441 22.14370726 3.125 19.5625 C3.04636719 18.68400391 2.96773438 17.80550781 2.88671875 16.90039062 C2.33280099 11.12686317 1.3650863 5.63815054 0 0 Z " fill="#D9D9D9" transform="translate(260,232)"/>
<path d="M0 0 C2 3 2 3 1.75 5.9375 C1.09911834 8.59526679 0.35855538 10.64517067 -1 13 C-2.88671875 12.73828125 -2.88671875 12.73828125 -5 12 C-6.08203125 10.29296875 -6.08203125 10.29296875 -6.8125 8.1875 C-7.06644531 7.50042969 -7.32039062 6.81335938 -7.58203125 6.10546875 C-8.06133705 3.69102175 -7.88759357 2.28592534 -7 0 C-4.27584084 -1.36207958 -2.87220643 -0.86166193 0 0 Z " fill="#CACACA" transform="translate(249,315)"/>
<path d="M0 0 C0.33 0 0.66 0 1 0 C1.01981934 0.6798999 1.03963867 1.3597998 1.06005859 2.06030273 C1.15621282 5.18637741 1.26552066 8.31186473 1.375 11.4375 C1.4059375 12.50677734 1.436875 13.57605469 1.46875 14.67773438 C1.70219828 21.03919994 2.40510577 26.83437231 4 33 C4.99 32.01 5.98 31.02 7 30 C6.88658363 32.31309705 6.75896193 34.62550185 6.625 36.9375 C6.55539063 38.22527344 6.48578125 39.51304687 6.4140625 40.83984375 C6.20910156 42.40412109 6.20910156 42.40412109 6 44 C5.01 44.495 5.01 44.495 4 45 C-0.07178052 29.91259896 -0.47405801 15.57280552 0 0 Z " fill="#B5B5B5" transform="translate(200,203)"/>
<path d="M0 0 C0.61875 0.78375 1.2375 1.5675 1.875 2.375 C3.89858661 4.96837647 3.89858661 4.96837647 6 7 C5.34 7.66 4.68 8.32 4 9 C3.30251417 10.31747324 2.63040043 11.64914193 2 13 C-2.75 12.125 -2.75 12.125 -5 11 C-4.01 8.03 -3.02 5.06 -2 2 C-1.34 2 -0.68 2 0 2 C0 1.34 0 0.68 0 0 Z " fill="#D8D8D8" transform="translate(218,343)"/>
<path d="M0 0 C2.72426311 2.35277269 3.8141763 4.62496331 5 8 C5.66 8 6.32 8 7 8 C7.33 9.65 7.66 11.3 8 13 C8.66 13 9.32 13 10 13 C9.67 10.69 9.34 8.38 9 6 C9.66 5.67 10.32 5.34 11 5 C11.36504603 6.58086048 11.71660506 8.16483907 12.0625 9.75 C12.25972656 10.63171875 12.45695313 11.5134375 12.66015625 12.421875 C12.99825872 14.98679028 12.81158635 16.57091639 12 19 C10.82739389 17.71372289 9.6620717 16.42080217 8.5 15.125 C7.8503125 14.40570313 7.200625 13.68640625 6.53125 12.9453125 C5 11 5 11 5 9 C4.34 9 3.68 9 3 9 C1.62689293 7.70766393 0.28965176 6.37562854 -1 5 C-1.33 5.99 -1.66 6.98 -2 8 C-2.33 6.02 -2.66 4.04 -3 2 C-2.01 2 -1.02 2 0 2 C0 1.34 0 0.68 0 0 Z " fill="#888888" transform="translate(196,243)"/>
<path d="M0 0 C2.42999536 2.27364177 3.42805835 3.68273845 4 7 C4.66 6.01 5.32 5.02 6 4 C6.66 4.33 7.32 4.66 8 5 C7.67 6.65 7.34 8.3 7 10 C6.34 10 5.68 10 5 10 C5 14.62 5 19.24 5 24 C5.99 23.67 6.98 23.34 8 23 C6.25 27.875 6.25 27.875 4 29 C3.9498877 28.44127197 3.89977539 27.88254395 3.84814453 27.30688477 C3.61309799 24.72483727 3.36909441 22.14370726 3.125 19.5625 C3.04636719 18.68400391 2.96773438 17.80550781 2.88671875 16.90039062 C2.33280099 11.12686317 1.3650863 5.63815054 0 0 Z " fill="#B0B0B0" transform="translate(260,232)"/>
<path d="M0 0 C0.99 0 1.98 0 3 0 C3.33 0.66 3.66 1.32 4 2 C4.66 2 5.32 2 6 2 C9 6.38461538 9 6.38461538 9 9 C9.66 9 10.32 9 11 9 C11.33 8.01 11.66 7.02 12 6 C12 7.98 12 9.96 12 12 C10.25 11.8125 10.25 11.8125 8 11 C7.360625 10.175 6.72125 9.35 6.0625 8.5 C4.21388522 5.78439848 4.21388522 5.78439848 1.25 5.1875 C0.13625 5.0946875 0.13625 5.0946875 -1 5 C-1.33 6.32 -1.66 7.64 -2 9 C-2.33 7.02 -2.66 5.04 -3 3 C-2.01 2.67 -1.02 2.34 0 2 C0 1.34 0 0.68 0 0 Z " fill="#A9A9A9" transform="translate(239,227)"/>
<path d="M0 0 C0.66 0.33 1.32 0.66 2 1 C2.38218767 2.65614657 2.71395102 4.32457024 3 6 C3.33 6.66 3.66 7.32 4 8 C0 9.33333333 -4 10.66666667 -8 12 C-7.6619668 8.84502343 -7.08066518 8.06618681 -4.5625 6 C-3.716875 5.34 -2.87125 4.68 -2 4 C-0.68834743 1.88339573 -0.68834743 1.88339573 0 0 Z " fill="#9C9C9C" transform="translate(319,295)"/>
<path d="M0 0 C0.66 0 1.32 0 2 0 C3.48845002 3.05807192 4.96408052 6.12216144 6.4375 9.1875 C6.85837891 10.05181641 7.27925781 10.91613281 7.71289062 11.80664062 C8.11572266 12.64775391 8.51855469 13.48886719 8.93359375 14.35546875 C9.30540771 15.12528076 9.67722168 15.89509277 10.06030273 16.68823242 C11.04652149 19.11444842 11.56736479 21.42213215 12 24 C11.34 24.33 10.68 24.66 10 25 C10 24.01 10 23.02 10 22 C9.34 21.67 8.68 21.34 8 21 C7.1183514 18.96609778 6.31836342 16.8964225 5.5625 14.8125 C4.29240509 11.32869736 3.00701244 8.01394237 1.33984375 4.69921875 C0 2 0 2 0 0 Z " fill="#CDCDCD" transform="translate(259,186)"/>
<path d="M0 0 C2.64 0.66 5.28 1.32 8 2 C8 3.65 8 5.3 8 7 C5.36 7.66 2.72 8.32 0 9 C-1.15941038 5.52176885 -0.70820884 3.54104422 0 0 Z " fill="#9C9C9C" transform="translate(153,174)"/>
<path d="M0 0 C1.09570312 0.00902344 2.19140625 0.01804688 3.3203125 0.02734375 C4.16335938 0.03894531 5.00640625 0.05054688 5.875 0.0625 C5.875 0.3925 5.875 0.7225 5.875 1.0625 C2.575 1.3925 -0.725 1.7225 -4.125 2.0625 C-2.805 2.7225 -1.485 3.3825 -0.125 4.0625 C-0.125 4.7225 -0.125 5.3825 -0.125 6.0625 C0.514375 6.18625 1.15375 6.31 1.8125 6.4375 C2.493125 6.64375 3.17375 6.85 3.875 7.0625 C4.205 7.7225 4.535 8.3825 4.875 9.0625 C4.215 9.0625 3.555 9.0625 2.875 9.0625 C2.545 9.7225 2.215 10.3825 1.875 11.0625 C0.57950101 9.96283225 -0.71126071 8.85758199 -2 7.75 C-2.71929687 7.13511719 -3.43859375 6.52023438 -4.1796875 5.88671875 C-6.125 4.0625 -6.125 4.0625 -8.125 1.0625 C-5.36047967 -0.31976016 -3.0788637 -0.03275387 0 0 Z " fill="#ACACAC" transform="translate(303.125,140.9375)"/>
<path d="M0 0 C0.33 0.99 0.66 1.98 1 3 C0.01 4.485 0.01 4.485 -1 6 C-0.34 6.33 0.32 6.66 1 7 C-1.10201185 9.47506515 -3.14932334 11.41899332 -6 13 C-9.78463391 13.22829561 -13.29058849 12.73785762 -17 12 C-14.49486612 10.65025114 -12.87574204 9.98446775 -10 9.625 C-6.37209398 8.86918625 -5.29960058 7.85467658 -3 5 C-1.95650161 3.36021682 -0.94392019 1.69905634 0 0 Z " fill="#C1C1C1" transform="translate(234,243)"/>
<path d="M0 0 C0.33 0 0.66 0 1 0 C1.33 2.64 1.66 5.28 2 8 C3.32 7.01 4.64 6.02 6 5 C5.49357808 9.35522853 4.61588503 12.44239635 2 16 C1.34 16 0.68 16 0 16 C-0.91397824 10.31302429 -0.91397824 5.68697571 0 0 Z " fill="#989898" transform="translate(159,240)"/>
<path d="M0 0 C1.9375 0.8125 1.9375 0.8125 4 2 C4.33 2.99 4.66 3.98 5 5 C5.66 5 6.32 5 7 5 C7 5.66 7 6.32 7 7 C7.721875 7.28875 8.44375 7.5775 9.1875 7.875 C11.79166667 8.91666667 14.39583333 9.95833333 17 11 C13.86650268 12.04449911 13.01031744 11.93423645 10 11 C9.67 11.66 9.34 12.32 9 13 C7.68227638 11.40012144 6.37098863 9.79494034 5.0625 8.1875 C4.33160156 7.29417969 3.60070312 6.40085938 2.84765625 5.48046875 C1 3 1 3 0 0 Z " fill="#909090" transform="translate(135,156)"/>
<path d="M0 0 C0.66 0.33 1.32 0.66 2 1 C1 4 1 4 -1.28515625 5.38671875 C-2.20167969 5.81597656 -3.11820313 6.24523437 -4.0625 6.6875 C-4.98160156 7.12449219 -5.90070313 7.56148438 -6.84765625 8.01171875 C-7.55792969 8.33785156 -8.26820313 8.66398437 -9 9 C-9 8.01 -9 7.02 -9 6 C-9.66 5.67 -10.32 5.34 -11 5 C-7.14243493 2.84694043 -4.44870215 1.60746746 0 2 C0 1.34 0 0.68 0 0 Z " fill="#9E9E9E" transform="translate(234,100)"/>
<path d="M0 0 C1.32 0.66 2.64 1.32 4 2 C3.34 2.66 2.68 3.32 2 4 C1.54188325 5.97235333 1.54188325 5.97235333 1.375 8.125 C1.189375 10.043125 1.189375 10.043125 1 12 C0.34 12 -0.32 12 -1 12 C-2.42258812 8.17679443 -3.24042276 5.08718695 -3 1 C-2.01 1.495 -2.01 1.495 -1 2 C-0.67 1.34 -0.34 0.68 0 0 Z " fill="#B9B9B9" transform="translate(250,219)"/>
<path d="M0 0 C0.33 2.31 0.66 4.62 1 7 C0.443125 6.79375 -0.11375 6.5875 -0.6875 6.375 C-3.659538 5.89304789 -5.31979941 6.73434972 -8 8 C-8 6.68 -8 5.36 -8 4 C-1.125 0 -1.125 0 0 0 Z " fill="#9E9E9E" transform="translate(344,276)"/>
<path d="M0 0 C2.50037734 2.17424117 3.43628586 3.73045798 4 7 C4.66 6.01 5.32 5.02 6 4 C6.66 4.33 7.32 4.66 8 5 C7.67 6.65 7.34 8.3 7 10 C5.68 10.33 4.36 10.66 3 11 C2.49632243 9.54293274 1.99717444 8.08429904 1.5 6.625 C1.2215625 5.81289062 0.943125 5.00078125 0.65625 4.1640625 C0 2 0 2 0 0 Z " fill="#BABABA" transform="translate(260,232)"/>
<path d="M0 0 C3.3 0.99 6.6 1.98 10 3 C9.34 3.66 8.68 4.32 8 5 C7.01 4.67 6.02 4.34 5 4 C4.67 4.66 4.34 5.32 4 6 C4 5.34 4 4.68 4 4 C0.37 4.66 -3.26 5.32 -7 6 C-7 5.34 -7 4.68 -7 4 C-4.69 3.34 -2.38 2.68 0 2 C0 1.34 0 0.68 0 0 Z " fill="#9C9C9C" transform="translate(146,193)"/>
<path d="M0 0 C2 2 2 2 2.046875 4.2421875 C1.94890625 5.11101562 1.8509375 5.97984375 1.75 6.875 C1.61851562 8.17050781 1.61851562 8.17050781 1.484375 9.4921875 C1.00349575 11.98190102 0.2453726 13.805286 -1 16 C-2.4606285 13.35261084 -3 12.10551666 -3 9 C-2.34 9 -1.68 9 -1 9 C-0.67 6.03 -0.34 3.06 0 0 Z " fill="#B7B7B7" transform="translate(186,240)"/>
<path d="M0 0 C0.66 0.66 1.32 1.32 2 2 C-1.33333333 5.33333333 -4.66666667 8.66666667 -8 12 C-8.66 11.34 -9.32 10.68 -10 10 C-6.7 6.7 -3.4 3.4 0 0 Z " fill="#B8B8B8" transform="translate(333,323)"/>
<path d="M0 0 C0.33 0 0.66 0 1 0 C1.36504603 1.58086048 1.71660506 3.16483907 2.0625 4.75 C2.25972656 5.63171875 2.45695313 6.5134375 2.66015625 7.421875 C2.99825872 9.98679028 2.81158635 11.57091639 2 14 C0.68 12.35 -0.64 10.7 -2 9 C-1.67 8.67 -1.34 8.34 -1 8 C-1 6.845 -1 5.69 -1 4.5 C-1 1 -1 1 0 0 Z " fill="#A9A9A9" transform="translate(206,248)"/>
<path d="M0 0 C5.94 0.66 11.88 1.32 18 2 C18 2.33 18 2.66 18 3 C11.73 3 5.46 3 -1 3 C-0.67 2.01 -0.34 1.02 0 0 Z " fill="#B3B3B3" transform="translate(237,357)"/>
<path d="M0 0 C4.62 0 9.24 0 14 0 C10.71299843 1.64350079 8.52069985 2.41321669 5 3 C5 4.32 5 5.64 5 7 C4.34 7 3.68 7 3 7 C2.87625 6.030625 2.7525 5.06125 2.625 4.0625 C2.41875 3.051875 2.2125 2.04125 2 1 C1.34 0.67 0.68 0.34 0 0 Z " fill="#A8A8A8" transform="translate(202,288)"/>
<path d="M0 0 C2.475 0.99 2.475 0.99 5 2 C5 3.65 5 5.3 5 7 C3.68 6.67 2.36 6.34 1 6 C0.67 4.02 0.34 2.04 0 0 Z " fill="#ACACAC" transform="translate(243,321)"/>
<path d="M0 0 C0.33 0.99 0.66 1.98 1 3 C0.01 4.485 0.01 4.485 -1 6 C-0.34 6.33 0.32 6.66 1 7 C-0.65 8.32 -2.3 9.64 -4 11 C-4 10.34 -4 9.68 -4 9 C-4.66 8.67 -5.32 8.34 -6 8 C-5.566875 7.608125 -5.13375 7.21625 -4.6875 6.8125 C-2.73633776 4.71680722 -1.40989838 2.48410667 0 0 Z " fill="#B1B1B1" transform="translate(234,243)"/>
<path d="M0 0 C4 6 4 6 3.625 8.6875 C3.41875 9.450625 3.2125 10.21375 3 11 C2.67 10.01 2.34 9.02 2 8 C1.34 7.67 0.68 7.34 0 7 C-1.26229508 2.52459016 -1.26229508 2.52459016 0 0 Z " fill="#B5B5B5" transform="translate(267,200)"/>
<path d="M0 0 C1.22589844 0.15275391 1.22589844 0.15275391 2.4765625 0.30859375 C3.41628906 0.43427734 3.41628906 0.43427734 4.375 0.5625 C4.375 0.8925 4.375 1.2225 4.375 1.5625 C2.395 1.8925 0.415 2.2225 -1.625 2.5625 C-1.295 3.2225 -0.965 3.8825 -0.625 4.5625 C-5.5 2.8125 -5.5 2.8125 -6.625 0.5625 C-4.10446405 -0.69776798 -2.7707902 -0.35624445 0 0 Z " fill="#B0B0B0" transform="translate(143.625,187.4375)"/>
<path d="M0 0 C1.32 0.66 2.64 1.32 4 2 C-1.2734375 5.22265625 -1.2734375 5.22265625 -3 6 C-3.66 5.67 -4.32 5.34 -5 5 C-3.35 3.35 -1.7 1.7 0 0 Z " fill="#CCCCCC" transform="translate(237,339)"/>
<path d="M0 0 C2.14699969 3.44175522 2.09856795 5.7720292 1.625 9.75 C1.51414063 10.73484375 1.40328125 11.7196875 1.2890625 12.734375 C1.19367188 13.48203125 1.09828125 14.2296875 1 15 C0.67 15 0.34 15 0 15 C-0.19390729 12.68802845 -0.37996367 10.3753971 -0.5625 8.0625 C-0.71912109 6.13083984 -0.71912109 6.13083984 -0.87890625 4.16015625 C-0.91886719 3.11730469 -0.95882812 2.07445312 -1 1 C-0.67 0.67 -0.34 0.34 0 0 Z " fill="#B9B9B9" transform="translate(180,226)"/>
<path d="M0 0 C1.9375 0.8125 1.9375 0.8125 4 2 C4.33 2.99 4.66 3.98 5 5 C5.66 5 6.32 5 7 5 C6.67 5.66 6.34 6.32 6 7 C3.00675737 5.9024777 2.15389099 5.32317108 0.75 2.375 C0.5025 1.59125 0.255 0.8075 0 0 Z " fill="#7B7B7B" transform="translate(135,156)"/>
<path d="M0 0 C-1.28519565 2.86697492 -2.57129254 4.97607712 -5 7 C-5.66 7 -6.32 7 -7 7 C-3.86206897 0 -3.86206897 0 0 0 Z " fill="#ABABAB" transform="translate(225,133)"/>
<path d="M0 0 C0.66 0 1.32 0 2 0 C2 0.99 2 1.98 2 3 C0.25 4.75 0.25 4.75 -2 6 C-4.25 5.6875 -4.25 5.6875 -6 5 C-4.6875 3.5 -4.6875 3.5 -3 2 C-2.01 2 -1.02 2 0 2 C0 1.34 0 0.68 0 0 Z " fill="#CBCBCB" transform="translate(216,108)"/>
<path d="M0 0 C2.31 0.33 4.62 0.66 7 1 C7 1.66 7 2.32 7 3 C4.69 3 2.38 3 0 3 C0 2.01 0 1.02 0 0 Z " fill="#DADADA" transform="translate(154,178)"/>
<path d="M0 0 C0.66 0 1.32 0 2 0 C2.33 1.65 2.66 3.3 3 5 C2.34 4.67 1.68 4.34 1 4 C0.01 5.32 -0.98 6.64 -2 8 C-1.125 2.25 -1.125 2.25 0 0 Z " fill="#ACACAC" transform="translate(209,171)"/>
<path d="M0 0 C2.375 -0.1875 2.375 -0.1875 5 0 C5.66 0.99 6.32 1.98 7 3 C6.34 3 5.68 3 5 3 C4.67 3.66 4.34 4.32 4 5 C2.64567325 3.68799596 1.31266518 2.35368596 0 1 C0 0.67 0 0.34 0 0 Z " fill="#B5B5B5" transform="translate(301,147)"/>
<path d="M0 0 C0.33 0.66 0.66 1.32 1 2 C2.32 1.67 3.64 1.34 5 1 C5 2.32 5 3.64 5 5 C3.02 4.34 1.04 3.68 -1 3 C-0.67 2.01 -0.34 1.02 0 0 Z " fill="#A1A1A1" transform="translate(214,351)"/>
<path d="M0 0 C0.33 0.99 0.66 1.98 1 3 C1.66 3.33 2.32 3.66 3 4 C1.02 4.99 -0.96 5.98 -3 7 C-2.38722388 4.03824877 -1.74627478 2.61941217 0 0 Z " fill="#A1A1A1" transform="translate(279,248)"/>
<path d="M0 0 C0.66 0.66 1.32 1.32 2 2 C2.66 2 3.32 2 4 2 C4 2.66 4 3.32 4 4 C1.69 4.66 -0.62 5.32 -3 6 C-1.125 1.125 -1.125 1.125 0 0 Z " fill="#9C9C9C" transform="translate(212,237)"/>
<path d="M0 0 C-4.75 4 -4.75 4 -7 4 C-7 2.68 -7 1.36 -7 0 C-2.25 -1.125 -2.25 -1.125 0 0 Z " fill="#C1C1C1" transform="translate(225,218)"/>
<path d="M0 0 C0.99 0.33 1.98 0.66 3 1 C4.1875 4.0625 4.1875 4.0625 5 7 C3.02 5.68 1.04 4.36 -1 3 C-0.67 2.01 -0.34 1.02 0 0 Z " fill="#ADADAD" transform="translate(207,145)"/>
<path d="M0 0 C0.66 0.33 1.32 0.66 2 1 C1.01 2.98 0.02 4.96 -1 7 C-1.33 6.34 -1.66 5.68 -2 5 C-2.66 4.67 -3.32 4.34 -4 4 C-2.68 2.68 -1.36 1.36 0 0 Z " fill="#898989" transform="translate(173,92)"/>
</svg>
