<?xml version="1.0" encoding="UTF-8"?>
<svg version="1.1" xmlns="http://www.w3.org/2000/svg" width="500" height="500">
<path d="M0 0 C6.93 0 13.86 0 21 0 C21 37.62 21 75.24 21 114 C33.87 114.495 33.87 114.495 47 115 C48.28317892 118.84953676 48.06643637 121.94738135 48 126 C48.15819214 124.98969727 48.15819214 124.98969727 48.31958008 123.95898438 C48.81478159 120.80560134 49.31363829 117.65280599 49.8125 114.5 C49.97814453 113.44167969 50.14378906 112.38335937 50.31445312 111.29296875 C51.25692608 105.35361088 52.28582704 99.44189173 53.42456055 93.53686523 C54.81909106 86.18922838 55.99851375 78.82089267 57.07745361 71.41980171 C57.38643121 69.30049862 57.69939831 67.18181349 58.01318359 65.06321716 C58.67890631 60.56348303 59.33961727 56.06302038 60 51.5625 C67.32679393 1.67320607 67.32679393 1.67320607 69 0 C70.70772358 -0.08713831 72.41898649 -0.10700007 74.12890625 -0.09765625 C75.68061523 -0.09282227 75.68061523 -0.09282227 77.26367188 -0.08789062 C78.35228516 -0.07951172 79.44089844 -0.07113281 80.5625 -0.0625 C82.2012207 -0.05573242 82.2012207 -0.05573242 83.87304688 -0.04882812 C86.58208495 -0.03699826 89.29101599 -0.02051543 92 0 C94.28264704 6.82765092 95.02177912 13.81896313 95.9375 20.9375 C97.15265986 30.08481217 98.49630717 39.12912488 100.29296875 48.1796875 C101.11977288 52.64717061 101.75707802 57.12470277 102.375 61.625 C103.58419165 70.4259122 105.01303755 79.17947313 106.5 87.9375 C108.03709435 97.04908248 109.53217984 106.16090457 110.8125 115.3125 C110.93625 116.17029053 111.06 117.02808105 111.1875 117.91186523 C111.29707031 118.72083252 111.40664063 119.5297998 111.51953125 120.36328125 C111.61339111 121.04688721 111.70725098 121.73049316 111.80395508 122.43481445 C112.09776464 126.27921924 112 130.14438432 112 134 C105.4 134 98.8 134 92 134 C89.62403252 125.68411383 89 120.80266217 89 112 C83.06 112 77.12 112 71 112 C70.814375 114.660625 70.814375 114.660625 70.625 117.375 C70.22199383 123.1514217 69.16438139 128.17809306 68 134 C45.89 134 23.78 134 1 134 C-0.96222834 130.07554331 -1.24290298 128.76474838 -1.20254517 124.5836792 C-1.19688034 123.48434052 -1.19121552 122.38500183 -1.18537903 121.25234985 C-1.16883774 120.05113495 -1.15229645 118.84992004 -1.13525391 117.61230469 C-1.12579239 116.34375641 -1.11633087 115.07520813 -1.10658264 113.76821899 C-1.08043451 110.29323163 -1.04176753 106.81848297 -1.00085878 103.34364223 C-0.96021773 99.71086784 -0.9310812 96.07800167 -0.90072632 92.44512939 C-0.84150932 85.56738766 -0.77194026 78.68979113 -0.69865549 71.81218648 C-0.61571995 63.98160016 -0.54431936 56.15092198 -0.47388959 48.32021475 C-0.32876499 32.21333828 -0.16873935 16.10664658 0 0 Z M79 46 C78.78065796 47.87703613 78.78065796 47.87703613 78.55688477 49.79199219 C78.01345024 54.43650865 77.46659221 59.0806167 76.91870117 63.72460938 C76.68208982 65.73426522 76.4464059 67.74403049 76.21166992 69.75390625 C75.87402455 72.64352243 75.53304129 75.53272814 75.19140625 78.421875 C75.08719864 79.31992859 74.98299103 80.21798218 74.87562561 81.14324951 C74.77559738 81.98381897 74.67556915 82.82438843 74.57250977 83.69042969 C74.48590591 84.42767273 74.39930206 85.16491577 74.31007385 85.92449951 C74 88 74 88 73.40171814 90.20684814 C73.26915115 90.79858826 73.13658417 91.39032837 73 92 C74.08552366 93.31262571 74.08552366 93.31262571 76.72265625 93.09765625 C77.82480469 93.08605469 78.92695313 93.07445312 80.0625 93.0625 C81.16722656 93.05347656 82.27195312 93.04445313 83.41015625 93.03515625 C84.69212891 93.01775391 84.69212891 93.01775391 86 93 C85.45046672 87.57378845 84.89905606 82.14777209 84.34594727 76.72192383 C84.15826347 74.8782256 83.97108198 73.03447617 83.78442383 71.19067383 C83.51517441 68.53192561 83.24408578 65.87337018 82.97265625 63.21484375 C82.89032242 62.39789536 82.80798859 61.58094696 82.72315979 60.73924255 C82.49268668 58.4915314 82.24904667 56.24572005 82 54 C81.92981659 53.30915314 81.85963318 52.61830627 81.787323 51.90652466 C81.59611906 50.2611665 81.30748614 48.62764083 81 47 C80.34 46.67 79.68 46.34 79 46 Z " fill="#F0F0F0" transform="translate(194,181)"/>
<path d="M0 0 C7.26 0 14.52 0 22 0 C24.03488462 6.38532761 25.99743625 12.70350329 27.4375 19.25 C28.51965427 24.14296634 29.84472516 28.89619678 31.3125 33.6875 C34.67357746 45.33402422 37.27429494 57.18861143 40 69 C40 46.23 40 23.46 40 0 C46.6 0 53.2 0 60 0 C60.02311843 17.32377402 60.04097893 34.6475419 60.05181217 51.97132778 C60.05697523 60.01450054 60.06401812 68.05766357 60.07543945 76.10083008 C60.08538598 83.1087296 60.09185335 90.11662208 60.09408849 97.12452847 C60.09539566 100.83743192 60.09848184 104.5503152 60.10573006 108.2632122 C60.11374332 112.40131411 60.11399116 116.53938061 60.11352539 120.67749023 C60.11712067 121.91754318 60.12071594 123.15759613 60.12442017 124.43522644 C60.1230455 125.55568359 60.12167084 126.67614075 60.12025452 127.83055115 C60.12117631 128.81041709 60.1220981 129.79028303 60.12304783 130.79984188 C60 133 60 133 59 134 C55.8617655 134.24966567 52.70950387 134.18521791 49.5625 134.1875 C48.67755859 134.19974609 47.79261719 134.21199219 46.88085938 134.22460938 C46.03458984 134.22654297 45.18832031 134.22847656 44.31640625 134.23046875 C43.53724854 134.23457764 42.75809082 134.23868652 41.95532227 134.24291992 C40 134 40 134 38 132 C37.13492305 129.20421239 36.36396066 126.4351472 35.64453125 123.6015625 C35.41980637 122.73856537 35.19508148 121.87556824 34.96354675 120.98641968 C34.24006518 118.20090875 33.52629001 115.41300822 32.8125 112.625 C32.35151644 110.84749924 31.8899333 109.07015387 31.42773438 107.29296875 C27.51986995 92.22028816 23.76054758 77.10996296 20 62 C20.00222061 62.8872728 20.00444122 63.77454559 20.00672913 64.68870544 C20.02672961 73.03244657 20.04197289 81.37617969 20.05181217 89.71993923 C20.05704061 94.00999915 20.06413753 98.30003933 20.07543945 102.59008789 C20.08626975 106.726794 20.09227714 110.86348108 20.09487724 115.00020027 C20.09673124 116.58192304 20.10035136 118.16364471 20.10573006 119.74535942 C20.1129424 121.95322838 20.11399086 124.16101773 20.11352539 126.36889648 C20.115746 127.62798325 20.11796661 128.88707001 20.12025452 130.18431091 C20 133 20 133 19 134 C17.65732587 134.08631874 16.31025678 134.10706473 14.96484375 134.09765625 C14.15595703 134.09443359 13.34707031 134.09121094 12.51367188 134.08789062 C11.66353516 134.07951172 10.81339844 134.07113281 9.9375 134.0625 C9.08349609 134.05798828 8.22949219 134.05347656 7.34960938 134.04882812 C5.23304337 134.03700373 3.11651315 134.01906769 1 134 C0.27355583 130.0893272 -0.12415987 126.39474607 -0.12025452 122.4190979 C-0.12162918 121.3338382 -0.12300385 120.24857849 -0.12442017 119.13043213 C-0.12082489 117.95510925 -0.11722961 116.77978638 -0.11352539 115.56884766 C-0.11367142 114.31951447 -0.11381744 113.07018127 -0.1139679 111.7829895 C-0.11339196 108.37020658 -0.10838797 104.95748467 -0.10139394 101.54471254 C-0.09512876 97.97328148 -0.0945541 94.40184953 -0.09336853 90.83041382 C-0.09026453 84.07323928 -0.08206372 77.31608099 -0.07201904 70.55891359 C-0.06082895 62.86363895 -0.05534016 55.16836353 -0.05032361 47.47308278 C-0.03988031 31.6487122 -0.02209672 15.82435884 0 0 Z " fill="#F1F1F1" transform="translate(310,181)"/>
<path d="M0 0 C1.2065625 0.9590625 1.2065625 0.9590625 2.4375 1.9375 C2.4375 2.5975 2.4375 3.2575 2.4375 3.9375 C3.0975 3.9375 3.7575 3.9375 4.4375 3.9375 C4.4375 4.5975 4.4375 5.2575 4.4375 5.9375 C5.0975 5.9375 5.7575 5.9375 6.4375 5.9375 C11.01480175 14.32921987 12.74381007 22.06274117 12.7121582 31.60327148 C12.71726913 32.41757629 12.72238007 33.2318811 12.72764587 34.07086182 C12.74142209 36.73351617 12.74059436 39.39590823 12.73828125 42.05859375 C12.74217443 43.92749628 12.74651037 45.79639793 12.75126648 47.66529846 C12.75870272 51.57124711 12.75845607 55.47710533 12.75317383 59.38305664 C12.74737919 64.36705686 12.76432279 69.35068546 12.7875185 74.33462429 C12.80231011 78.19100578 12.80312023 82.04729885 12.80000877 85.90370369 C12.80051914 87.7403544 12.80570297 89.57701043 12.81582069 91.41363335 C12.8786383 104.4085728 12.93216865 115.97237479 3.4375 125.9375 C-4.04848597 132.78443839 -11.15993507 134.4423434 -21.21484375 134.24609375 C-30.32175128 133.40660052 -37.480867 129.73800215 -43.5625 122.9375 C-49.0540273 115.83949606 -49.86639114 107.06193246 -49.8371582 98.37939453 C-49.84226913 97.57644958 -49.84738007 96.77350464 -49.85264587 95.94622803 C-49.86642091 93.32084468 -49.86559426 90.69572744 -49.86328125 88.0703125 C-49.86717488 86.22622584 -49.87151091 84.38214006 -49.87626648 82.53805542 C-49.88370277 78.683381 -49.88345632 74.82879821 -49.87817383 70.97412109 C-49.87238333 66.05971938 -49.88931274 61.14569506 -49.9125185 56.23135567 C-49.92732423 52.42554571 -49.92811826 48.61982521 -49.92500877 44.81399155 C-49.92551857 43.00328703 -49.93069146 41.19257705 -49.94082069 39.38190079 C-50.00662222 25.97573014 -49.78755341 13.61695372 -40.5625 2.9375 C-29.41600548 -7.61995213 -12.83117894 -7.96726692 0 0 Z M-26.5625 19.9375 C-27.9179605 23.75407099 -27.71752676 27.71750692 -27.72363281 31.71606445 C-27.72859772 32.49544373 -27.73356262 33.274823 -27.73867798 34.07781982 C-27.75326377 36.65214934 -27.7600957 39.22641723 -27.765625 41.80078125 C-27.7713795 43.59433493 -27.7771372 45.3878886 -27.78289795 47.18144226 C-27.79339781 50.94152106 -27.79924708 54.70157853 -27.80273438 58.46166992 C-27.80821626 63.27009186 -27.83224201 68.07823023 -27.86070633 72.8865633 C-27.87936777 76.59184075 -27.88454018 80.29705037 -27.88607025 84.00237083 C-27.88908951 85.77452329 -27.89709341 87.54667475 -27.91025543 89.3187809 C-27.92738913 91.80298819 -27.92541802 94.28650888 -27.91894531 96.77075195 C-27.9281601 97.49671066 -27.93737488 98.22266937 -27.9468689 98.97062683 C-27.90541001 104.07291838 -26.85821154 107.4775133 -24.5625 111.9375 C-21.9089751 114.21194992 -20.53943097 113.93628584 -17 113.75 C-12.9925488 112.88785818 -12.9925488 112.88785818 -10.5625 109.9375 C-9.59090749 105.38238552 -9.41944849 100.93704288 -9.43310547 96.29907227 C-9.43135315 95.55841522 -9.42960083 94.81775818 -9.42779541 94.05465698 C-9.42341607 91.62104914 -9.42630135 89.18751476 -9.4296875 86.75390625 C-9.42901326 85.05289191 -9.42804224 83.35187766 -9.42678833 81.65086365 C-9.4253166 78.09104492 -9.42744878 74.53125134 -9.43212891 70.97143555 C-9.43782152 66.4210055 -9.43454681 61.87063451 -9.42855644 57.32020664 C-9.42493296 53.80880798 -9.4260977 50.29742318 -9.42868423 46.78602409 C-9.42934878 45.10878429 -9.42854166 43.4315432 -9.42620468 41.75430489 C-9.42364924 39.40461039 -9.42755947 37.05500982 -9.43310547 34.70532227 C-9.43108124 34.0199086 -9.42905701 33.33449493 -9.42697144 32.62831116 C-9.34440657 24.69735857 -9.34440657 24.69735857 -12.125 17.5 C-17.34339934 14.15487222 -22.93450673 14.71318969 -26.5625 19.9375 Z " fill="#EFEFEF" transform="translate(174.5625,184.0625)"/>
<path d="M0 0 C7.92 0 15.84 0 24 0 C25.46954594 2.93909189 25.65249953 6.06528413 26.0859375 9.2890625 C26.18838776 10.0251474 26.29083801 10.7612323 26.39639282 11.5196228 C26.8337248 14.66209508 27.26311213 17.80563655 27.69238281 20.94921875 C28.87749075 29.59353545 30.17936344 38.16774238 31.85127258 46.73252869 C33.62133674 55.99285754 34.79680027 65.34781528 36.0625 74.6875 C36.57262142 78.42079263 37.08473929 82.15380924 37.59765625 85.88671875 C37.71981506 86.77639343 37.84197388 87.66606812 37.96783447 88.58270264 C39.41711496 99.09300189 41.01741872 109.5588584 43.03125 119.9765625 C43.84100261 124.37236237 44.21711698 128.53196117 44 133 C42.0604886 134.9395114 39.1879288 134.13256629 36.61132812 134.13671875 C35.77021484 134.13285156 34.92910156 134.12898437 34.0625 134.125 C33.22525391 134.12886719 32.38800781 134.13273438 31.52539062 134.13671875 C30.72423828 134.13542969 29.92308594 134.13414062 29.09765625 134.1328125 C28.36039307 134.13168457 27.62312988 134.13055664 26.86352539 134.12939453 C25 134 25 134 23 133 C20.89963835 125.88210774 20.82985499 119.40130789 21 112 C15.06 112 9.12 112 3 112 C2.87882812 113.33675781 2.75765625 114.67351562 2.6328125 116.05078125 C2.4639832 117.80473006 2.29468811 119.55863407 2.125 121.3125 C2.00705078 122.63411133 2.00705078 122.63411133 1.88671875 123.98242188 C1.76103516 125.25375977 1.76103516 125.25375977 1.6328125 126.55078125 C1.52283936 127.72120972 1.52283936 127.72120972 1.41064453 128.9152832 C1 131 1 131 -1 134 C-2.97119141 134.34057617 -2.97119141 134.34057617 -5.3515625 134.29296875 C-6.20234375 134.28330078 -7.053125 134.27363281 -7.9296875 134.26367188 C-8.81914062 134.23853516 -9.70859375 134.21339844 -10.625 134.1875 C-11.5221875 134.17396484 -12.419375 134.16042969 -13.34375 134.14648438 C-15.56309789 134.11106925 -17.78125188 134.06168461 -20 134 C-20.18638702 129.24713092 -19.8955598 124.8491831 -19.14160156 120.14990234 C-18.86781677 118.42462311 -18.86781677 118.42462311 -18.58850098 116.66448975 C-18.39429565 115.45520813 -18.20009033 114.24592651 -18 113 C-17.61886507 110.57252268 -17.238347 108.14494845 -16.85839844 105.71728516 C-16.55040586 103.7613802 -16.24240651 101.80547629 -15.93412399 99.849617 C-15.48037428 96.97054412 -15.0272714 94.09136952 -14.57411003 91.21220398 C-14.21260707 88.91544773 -13.85103292 86.61870269 -13.48944092 84.32196045 C-13.2429587 82.75630727 -12.99647841 81.19065378 -12.75 79.625 C-12.62711861 78.84445503 -12.50423721 78.06391006 -12.37763214 77.25971222 C-8.64427299 53.56465561 -8.64427299 53.56465561 -4.9765625 29.859375 C-4.83379883 28.92729218 -4.69103516 27.99520935 -4.54394531 27.03488159 C-3.91349548 22.91261222 -3.28626864 18.78987792 -2.66308594 14.66650391 C-2.5538681 13.94843567 -2.44465027 13.23036743 -2.3321228 12.49053955 C-2.04991416 10.63502119 -1.76972548 8.77919589 -1.48974609 6.92333984 C-1 4 -1 4 0 0 Z M11 41 C12 43 12 43 12 43 Z M11 44 C7.67496312 68.42358857 7.67496312 68.42358857 6 93 C9.63 93 13.26 93 17 93 C17.41496094 82.62597661 15.95401936 72.85554646 14.38916016 62.62548828 C13.80046255 58.65381073 13.29906649 54.67279788 12.8125 50.6875 C12.65394531 49.39199219 12.49539063 48.09648437 12.33203125 46.76171875 C12.22246094 45.85035156 12.11289062 44.93898437 12 44 C11.67 44 11.34 44 11 44 Z " fill="#F1F1F1" transform="translate(393,181)"/>
<path d="M0 0 C2.625 2.125 2.625 2.125 4 4 C4 4.66 4 5.32 4 6 C4.66 6 5.32 6 6 6 C6.65489373 7.37070781 7.29844963 8.74683444 7.9375 10.125 C8.47697266 11.27355469 8.47697266 11.27355469 9.02734375 12.4453125 C11.05914988 17.78186355 11.13626765 23.0255063 11.125 28.6875 C11.12886719 30.64236328 11.12886719 30.64236328 11.1328125 32.63671875 C11 36 11 36 10 39 C6.63079846 40.38591269 3.03092343 40.13317616 -0.5625 40.125 C-1.69816406 40.12757813 -2.83382812 40.13015625 -4.00390625 40.1328125 C-7 40 -7 40 -10 39 C-10.09087891 37.22882813 -10.09087891 37.22882813 -10.18359375 35.421875 C-10.26802582 33.8645723 -10.35267249 32.30728121 -10.4375 30.75 C-10.47681641 29.97269531 -10.51613281 29.19539063 -10.55664062 28.39453125 C-10.59853516 27.64042969 -10.64042969 26.88632813 -10.68359375 26.109375 C-10.73858032 25.07248535 -10.73858032 25.07248535 -10.79467773 24.01464844 C-11.00982236 21.90362174 -11.32498837 20.01387093 -12 18 C-14.73905345 16.63047327 -16.97087332 16.87378639 -20 17 C-22.59474454 18.29737227 -22.94519597 19.32383782 -24 22 C-24.79930967 28.77856119 -24.02438657 33.95122685 -21 40 C-21 40.99 -21 41.98 -21 43 C-20.34 43 -19.68 43 -19 43 C-15 48.41176471 -15 48.41176471 -15 51 C-14.01 51.33 -13.02 51.66 -12 52 C-10.39187335 53.73226275 -8.85802684 55.5345009 -7.375 57.375 C-6.57835937 58.35210937 -5.78171875 59.32921875 -4.9609375 60.3359375 C-3 63 -3 63 -2 66 C-1.34 66 -0.68 66 0 66 C10.32633189 77.99186929 13.07998319 92.71378637 12 108 C10.75859943 115.47772785 7.80288031 122.78327793 1.921875 127.7578125 C-7.01884561 134.05280966 -15.92827255 135.12635637 -26.5625 133.4375 C-32.97240468 131.79248021 -38.09401363 127.99512143 -41.640625 122.421875 C-45.54458725 114.7485699 -46.28999638 108.39788629 -46.625 99.875 C-46.70234375 98.19083984 -46.70234375 98.19083984 -46.78125 96.47265625 C-46.82507812 95.40660156 -46.86890625 94.34054687 -46.9140625 93.2421875 C-46.9548291 92.2610498 -46.9955957 91.27991211 -47.03759766 90.26904297 C-47 88 -47 88 -46 87 C-43.20238412 86.73496271 -40.42893112 86.53077395 -37.625 86.375 C-36.84382813 86.3234375 -36.06265625 86.271875 -35.2578125 86.21875 C-31.86129641 86.02100762 -29.25708045 85.91430652 -26 87 C-25.2858668 93.73108523 -24.73205359 100.46084003 -24.28125 107.21484375 C-24.0945844 110.08176795 -24.0945844 110.08176795 -23 113 C-17.73672544 113.50398407 -17.73672544 113.50398407 -13.0625 111.6875 C-9.62429358 106.22681921 -10.33680167 98.60824855 -11.4609375 92.4921875 C-13.58116836 85.33329036 -18.11695632 80.20759103 -22.875 74.625 C-25 72 -25 72 -25 70 C-25.66 70 -26.32 70 -27 70 C-27 69.34 -27 68.68 -27 68 C-27.66 68 -28.32 68 -29 68 C-30.88347236 65.7039575 -32.64083874 63.40500785 -34.375 61 C-34.85710937 60.35160156 -35.33921875 59.70320313 -35.8359375 59.03515625 C-45.20215909 46.18205325 -47.36393 33.69019723 -46 18 C-44.59612287 11.55734225 -41.63847288 6.63847288 -37 2 C-36.34 2 -35.68 2 -35 2 C-35 1.34 -35 0.68 -35 0 C-22.69560626 -5.6395138 -12.39177258 -6.44462625 0 0 Z " fill="#F0F0F0" transform="translate(109,184)"/>
<path d="M0 0 C6.93 0 13.86 0 21 0 C21 37.62 21 75.24 21 114 C33.87 114.495 33.87 114.495 47 115 C48 118 48 118 46 133 C30.82 133 15.64 133 0 133 C-1.02235412 129.93293764 -1.11013751 127.91251041 -1.08229065 124.70393372 C-1.07525116 123.6059697 -1.06821167 122.50800568 -1.06095886 121.37677002 C-1.04801285 120.17195984 -1.03506683 118.96714966 -1.02172852 117.72583008 C-1.01212097 116.45742783 -1.00251343 115.18902557 -0.99261475 113.88218689 C-0.96614628 110.40308662 -0.93336424 106.92407091 -0.89946485 103.44503617 C-0.86510941 99.80955337 -0.83653786 96.17402528 -0.80735779 92.53849792 C-0.75121638 85.65369429 -0.68985894 78.76894737 -0.62663645 71.88420552 C-0.55491483 64.04634982 -0.48899443 56.20844872 -0.42356598 48.37053835 C-0.28884118 32.24696585 -0.14661021 16.12346886 0 0 Z " fill="#F8F8F8" transform="translate(194,181)"/>
<path d="M0 0 C0.75464035 0.05551529 1.5092807 0.11103058 2.28678894 0.16822815 C3.14311417 0.22836594 3.99943939 0.28850372 4.88171387 0.35046387 C5.82000534 0.42124649 6.75829681 0.49202911 7.72502136 0.56495667 C9.72697015 0.7049926 11.72892344 0.84496425 13.73088074 0.98487854 C16.87435634 1.21095291 20.0176536 1.43925613 23.16081238 1.66969299 C42.39029474 3.06733227 61.30779623 3.3732648 80.5533905 2.20680237 C82.86224441 2.06693934 85.17146498 1.93541852 87.48088074 1.80519104 C95.42382784 1.34888936 103.35110587 0.80721315 111.26799011 0.00636292 C110.73083553 4.07921857 110.53899774 4.77960143 107.20549011 7.56886292 C96.81364243 13.43045671 84.59583637 14.46481864 72.91252136 14.83058167 C69.45003819 14.90188059 69.45003819 14.90188059 66.83830261 15.51417542 C47.65258984 19.18803531 17.33997013 17.23220416 0.68595886 6.35011292 C-1.00606874 4.74664874 -1.80909547 3.1313171 -2.73200989 1.00636292 C-1.73200989 0.00636292 -1.73200989 0.00636292 0 0 Z " fill="#E9E9E9" transform="translate(195.7320098876953,319.99363708496094)"/>
<path d="M0 0 C2.15172617 0.04206809 4.30205783 0.15841653 6.44921875 0.3046875 C7.09945511 0.34812286 7.74969147 0.39155823 8.41963196 0.43630981 C9.80100506 0.52972363 11.18220424 0.62573946 12.56323242 0.72412109 C14.66091965 0.8731121 16.75904626 1.01342431 18.85742188 1.15234375 C24.6233914 1.54698135 30.30549198 1.96522841 36 3 C36 3.33 36 3.66 36 4 C24.50479125 4.28189885 13.39970808 3.47773994 2 2 C1.67 2.99 1.34 3.98 1 5 C0.34 3.68 -0.32 2.36 -1 1 C-0.67 0.67 -0.34 0.34 0 0 Z " fill="#919194" transform="translate(194,320)"/>
<path d="M0 0 C0.33 0 0.66 0 1 0 C1.17835515 4.54805635 0.99785435 7.8794254 -1 12 C-1.66 12 -2.32 12 -3 12 C-3 8.37 -3 4.74 -3 1 C-2.34 2.32 -1.68 3.64 -1 5 C-0.67 3.35 -0.34 1.7 0 0 Z " fill="#C3C1C4" transform="translate(243,302)"/>
<path d="M0 0 C0.33 0 0.66 0 1 0 C1 2.64 1 5.28 1 8 C3.64 8 6.28 8 9 8 C9 8.33 9 8.66 9 9 C4.545 9.495 4.545 9.495 0 10 C-1.60339848 6.88228073 -2.18974141 5.60988311 -1.125 2.1875 C-0.75375 1.465625 -0.3825 0.74375 0 0 Z " fill="#D1D1D1" transform="translate(398,266)"/>
<path d="M0 0 C1.78409802 3.06246747 2.22880021 5.22079273 2.125 8.75 C2.10695313 9.54921875 2.08890625 10.3484375 2.0703125 11.171875 C2.04710937 11.77515625 2.02390625 12.3784375 2 13 C-0.49497561 8.17638048 -1.07844633 5.39223163 0 0 Z " fill="#A4A4A5" transform="translate(299,267)"/>
<path d="M0 0 C0.33 0 0.66 0 1 0 C1.92470553 4.71599818 2.22923777 7.67265609 0 12 C-0.33 12 -0.66 12 -1 12 C-1.14285714 3.42857143 -1.14285714 3.42857143 0 0 Z " fill="#A7A7AA" transform="translate(260,195)"/>
<path d="M0 0 C0.33 1.32 0.66 2.64 1 4 C0.34 4 -0.32 4 -1 4 C-1.33 4.66 -1.66 5.32 -2 6 C-2.99 5.67 -3.98 5.34 -5 5 C-3.35 3.35 -1.7 1.7 0 0 Z " fill="#C5C5C6" transform="translate(137,185)"/>
</svg>
